<?xml version="1.0" encoding="UTF-8" standalone="no"?>
<svg
   xmlns:dc="http://purl.org/dc/elements/1.1/"
   xmlns:cc="http://creativecommons.org/ns#"
   xmlns:rdf="http://www.w3.org/1999/02/22-rdf-syntax-ns#"
   xmlns:svg="http://www.w3.org/2000/svg"
   xmlns="http://www.w3.org/2000/svg"
   xmlns:sodipodi="http://sodipodi.sourceforge.net/DTD/sodipodi-0.dtd"
   xmlns:inkscape="http://www.inkscape.org/namespaces/inkscape"
   width="36in"
   height="24in"
   viewBox="0 0 914.39997 609.59999"
   version="1.1"
   id="svg16"
   inkscape:version="0.92.5 (2060ec1f9f, 2020-04-08)"
   sodipodi:docname="Starry Nightlight - laser cut  - three sixteenths white acrylic.svg">
  <defs
     id="defs10" />
  <sodipodi:namedview
     id="base"
     pagecolor="#ffffff"
     bordercolor="#666666"
     borderopacity="1.0"
     inkscape:pageopacity="0.0"
     inkscape:pageshadow="2"
     inkscape:zoom="0.5595283"
     inkscape:cx="228.4435"
     inkscape:cy="1714.1568"
     inkscape:document-units="mm"
     inkscape:current-layer="layer1"
     inkscape:document-rotation="0"
     showgrid="false"
     units="in"
     inkscape:window-width="1920"
     inkscape:window-height="996"
     inkscape:window-x="-9"
     inkscape:window-y="-9"
     inkscape:window-maximized="1" />
  <metadata
     id="metadata13">
    <rdf:RDF>
      <cc:Work
         rdf:about="">
        <dc:format>image/svg+xml</dc:format>
        <dc:type
           rdf:resource="http://purl.org/dc/dcmitype/StillImage" />
        <dc:title></dc:title>
      </cc:Work>
    </rdf:RDF>
  </metadata>
  <g
     inkscape:label="Layer 1"
     inkscape:groupmode="layer"
     id="layer1">
    <path
       d="M 17.305128,20.017343 V 76.67984 a 5.5562499,5.5562499 0 0 0 5.55625,5.55625 h 56.6625 a 5.5562499,5.5562499 0 0 0 5.55625,-5.55625 V 20.017343 a 5.5562499,5.5562499 0 0 0 -5.55625,-5.55625 h -56.6625 a 5.5562499,5.5562499 0 0 0 -5.55625,5.55625 z"
       style="display:inline;fill:none;stroke:#0000ff;stroke-width:0.264583"
       id="path769" />
    <path
       d="m 95.486491,19.650105 v 56.662497 a 5.5562499,5.5562499 0 0 0 5.556249,5.556252 h 56.6625 a 5.5562499,5.5562499 0 0 0 5.55625,-5.556252 V 19.650105 a 5.5562499,5.5562499 0 0 0 -5.55625,-5.55625 h -56.6625 a 5.5562499,5.5562499 0 0 0 -5.556249,5.55625 z"
       style="display:inline;fill:none;stroke:#0000ff;stroke-width:0.264583"
       id="path769-2" />
    <path
       d="M 174.00339,20.185003 V 76.8475 a 5.5562499,5.5562499 0 0 0 5.55625,5.55625 h 56.6625 a 5.5562499,5.5562499 0 0 0 5.55625,-5.55625 V 20.185003 a 5.5562499,5.5562499 0 0 0 -5.55625,-5.55625 h -56.6625 a 5.5562499,5.5562499 0 0 0 -5.55625,5.55625 z"
       style="display:inline;fill:none;stroke:#0000ff;stroke-width:0.264583"
       id="path769-9" />
  </g>
</svg>
