%TF.GenerationSoftware,KiCad,Pcbnew,(5.1.8)-1*%
%TF.CreationDate,2021-02-04T12:25:32-06:00*%
%TF.ProjectId,Project - LED Dimmer Board,50726f6a-6563-4742-902d-204c45442044,rev?*%
%TF.SameCoordinates,Original*%
%TF.FileFunction,Legend,Bot*%
%TF.FilePolarity,Positive*%
%FSLAX46Y46*%
G04 Gerber Fmt 4.6, Leading zero omitted, Abs format (unit mm)*
G04 Created by KiCad (PCBNEW (5.1.8)-1) date 2021-02-04 12:25:32*
%MOMM*%
%LPD*%
G01*
G04 APERTURE LIST*
%ADD10C,0.150000*%
G04 APERTURE END LIST*
%TO.C,A1*%
D10*
X85822065Y-82194083D02*
X85418004Y-82598144D01*
X86327142Y-83103221D02*
X85620035Y-82396114D01*
X85249646Y-82766503D02*
X85485348Y-83945014D01*
X84778241Y-83237908D02*
X85956752Y-83473610D01*
X84228044Y-81610215D02*
X84127029Y-81037795D01*
X84632105Y-81206154D02*
X83924999Y-80499047D01*
X83655624Y-80768421D01*
X83621953Y-80869436D01*
X83621953Y-80936780D01*
X83655624Y-81037795D01*
X83756640Y-81138810D01*
X83857655Y-81172482D01*
X83924999Y-81172482D01*
X84026014Y-81138810D01*
X84295388Y-80869436D01*
X83285235Y-81138810D02*
X83520937Y-82317322D01*
X82813831Y-81610215D02*
X83992342Y-81845917D01*
X82431993Y-79814164D02*
X82330978Y-79241744D01*
X82836054Y-79410103D02*
X82128948Y-78702996D01*
X81859574Y-78972370D01*
X81825902Y-79073385D01*
X81825902Y-79140729D01*
X81859574Y-79241744D01*
X81960589Y-79342759D01*
X82061604Y-79376431D01*
X82128948Y-79376431D01*
X82229963Y-79342759D01*
X82499337Y-79073385D01*
X82128948Y-80049866D02*
X82061604Y-80184553D01*
X81893245Y-80352912D01*
X81792230Y-80386584D01*
X81724887Y-80386584D01*
X81623871Y-80352912D01*
X81556528Y-80285569D01*
X81522856Y-80184553D01*
X81522856Y-80117210D01*
X81556528Y-80016195D01*
X81657543Y-79847836D01*
X81691215Y-79746820D01*
X81691215Y-79679477D01*
X81657543Y-79578462D01*
X81590199Y-79511118D01*
X81489184Y-79477446D01*
X81421841Y-79477446D01*
X81320825Y-79511118D01*
X81152467Y-79679477D01*
X81085123Y-79814164D01*
X80849421Y-79982523D02*
X80445360Y-80386584D01*
X81354497Y-80891660D02*
X80647390Y-80184553D01*
X79996179Y-77311006D02*
X80029851Y-77209991D01*
X80130866Y-77108976D01*
X80265553Y-77041632D01*
X80400240Y-77041632D01*
X80501255Y-77075304D01*
X80669614Y-77176319D01*
X80770629Y-77277334D01*
X80871645Y-77445693D01*
X80905316Y-77546708D01*
X80905316Y-77681395D01*
X80837973Y-77816082D01*
X80770629Y-77883426D01*
X80635942Y-77950769D01*
X80568599Y-77950769D01*
X80332897Y-77715067D01*
X80467584Y-77580380D01*
X80332897Y-78321159D02*
X79625790Y-77614052D01*
X79928836Y-78725220D01*
X79221729Y-78018113D01*
X79592118Y-79061937D02*
X78885011Y-78354830D01*
X78716653Y-78523189D01*
X78649309Y-78657876D01*
X78649309Y-78792563D01*
X78682981Y-78893578D01*
X78783996Y-79061937D01*
X78885011Y-79162952D01*
X79053370Y-79263968D01*
X79154385Y-79297639D01*
X79289072Y-79297639D01*
X79423759Y-79230296D01*
X79592118Y-79061937D01*
X79243952Y-75818000D02*
X78536846Y-75110893D01*
X78368487Y-75279252D01*
X78301143Y-75413939D01*
X78301143Y-75548626D01*
X78334815Y-75649641D01*
X78435830Y-75818000D01*
X78536846Y-75919015D01*
X78705204Y-76020031D01*
X78806220Y-76053702D01*
X78940907Y-76053702D01*
X79075594Y-75986359D01*
X79243952Y-75818000D01*
X77930754Y-75851672D02*
X77863410Y-75851672D01*
X77762395Y-75885343D01*
X77594036Y-76053702D01*
X77560365Y-76154718D01*
X77560365Y-76222061D01*
X77594036Y-76323076D01*
X77661380Y-76390420D01*
X77796067Y-76457763D01*
X78604189Y-76457763D01*
X78166456Y-76895496D01*
X76828981Y-73066311D02*
X76121874Y-73773418D01*
X77627506Y-74201554D02*
X76920400Y-73494447D01*
X76752041Y-73662806D01*
X76684697Y-73797493D01*
X76684697Y-73932180D01*
X76718369Y-74033195D01*
X76819384Y-74201554D01*
X76920400Y-74302569D01*
X77088758Y-74403585D01*
X77189774Y-74437256D01*
X77324461Y-74437256D01*
X77459148Y-74369913D01*
X77627506Y-74201554D01*
X76121874Y-73773418D02*
X75448439Y-74446853D01*
X76280636Y-74134210D02*
X75842903Y-74571943D01*
X76347980Y-74605615D01*
X76246964Y-74706630D01*
X76213293Y-74807646D01*
X76213293Y-74874989D01*
X76246964Y-74976004D01*
X76415323Y-75144363D01*
X76516338Y-75178035D01*
X76583682Y-75178035D01*
X76684697Y-75144363D01*
X76886728Y-74942333D01*
X76920400Y-74841317D01*
X76920400Y-74773974D01*
X75651849Y-72225898D02*
X74944743Y-71518791D01*
X74776384Y-71687150D01*
X74709040Y-71821837D01*
X74709040Y-71956524D01*
X74742712Y-72057539D01*
X74843727Y-72225898D01*
X74944743Y-72326913D01*
X75113101Y-72427929D01*
X75214117Y-72461600D01*
X75348804Y-72461600D01*
X75483491Y-72394257D01*
X75651849Y-72225898D01*
X74170292Y-72764646D02*
X74641697Y-73236051D01*
X74069277Y-72326913D02*
X74742712Y-72663631D01*
X74304979Y-73101364D01*
X73057273Y-69294604D02*
X72350166Y-70001711D01*
X73855798Y-70429847D02*
X73148692Y-69722740D01*
X72980333Y-69891099D01*
X72912989Y-70025786D01*
X72912989Y-70160473D01*
X72946661Y-70261488D01*
X73047676Y-70429847D01*
X73148692Y-70530862D01*
X73317050Y-70631878D01*
X73418066Y-70665549D01*
X73552753Y-70665549D01*
X73687440Y-70598206D01*
X73855798Y-70429847D01*
X72350166Y-70001711D02*
X71676731Y-70675146D01*
X72104867Y-70766565D02*
X72441585Y-70429847D01*
X72811974Y-70732893D01*
X72744630Y-70732893D01*
X72643615Y-70766565D01*
X72475256Y-70934923D01*
X72441585Y-71035939D01*
X72441585Y-71103282D01*
X72475256Y-71204297D01*
X72643615Y-71372656D01*
X72744630Y-71406328D01*
X72811974Y-71406328D01*
X72912989Y-71372656D01*
X73081348Y-71204297D01*
X73115020Y-71103282D01*
X73115020Y-71035939D01*
X71261222Y-67498553D02*
X70554115Y-68205660D01*
X72059747Y-68633796D02*
X71352641Y-67926689D01*
X71184282Y-68095048D01*
X71116938Y-68229735D01*
X71116938Y-68364422D01*
X71150610Y-68465437D01*
X71251625Y-68633796D01*
X71352641Y-68734811D01*
X71520999Y-68835827D01*
X71622015Y-68869498D01*
X71756702Y-68869498D01*
X71891389Y-68802155D01*
X72059747Y-68633796D01*
X70554115Y-68205660D02*
X69880680Y-68879095D01*
X70342488Y-68936842D02*
X70477175Y-68802155D01*
X70578190Y-68768483D01*
X70645534Y-68768483D01*
X70813892Y-68802155D01*
X70982251Y-68903170D01*
X71251625Y-69172544D01*
X71285297Y-69273559D01*
X71285297Y-69340903D01*
X71251625Y-69441918D01*
X71116938Y-69576605D01*
X71015923Y-69610277D01*
X70948579Y-69610277D01*
X70847564Y-69576605D01*
X70679205Y-69408246D01*
X70645534Y-69307231D01*
X70645534Y-69239888D01*
X70679205Y-69138872D01*
X70813892Y-69004185D01*
X70914908Y-68970514D01*
X70982251Y-68970514D01*
X71083266Y-69004185D01*
X70263696Y-66837744D02*
X69556590Y-66130637D01*
X69388231Y-66298996D01*
X69320887Y-66433683D01*
X69320887Y-66568370D01*
X69354559Y-66669385D01*
X69455574Y-66837744D01*
X69556590Y-66938759D01*
X69724948Y-67039775D01*
X69825964Y-67073446D01*
X69960651Y-67073446D01*
X70095338Y-67006103D01*
X70263696Y-66837744D01*
X68916826Y-66770400D02*
X68445422Y-67241805D01*
X69455574Y-67645866D01*
X68647250Y-65221298D02*
X67940144Y-64514191D01*
X67771785Y-64682550D01*
X67704441Y-64817237D01*
X67704441Y-64951924D01*
X67738113Y-65052939D01*
X67839128Y-65221298D01*
X67940144Y-65322313D01*
X68108502Y-65423329D01*
X68209518Y-65457000D01*
X68344205Y-65457000D01*
X68478892Y-65389657D01*
X68647250Y-65221298D01*
X67435067Y-65625359D02*
X67468739Y-65524344D01*
X67468739Y-65457000D01*
X67435067Y-65355985D01*
X67401395Y-65322313D01*
X67300380Y-65288641D01*
X67233037Y-65288641D01*
X67132021Y-65322313D01*
X66997334Y-65457000D01*
X66963663Y-65558016D01*
X66963663Y-65625359D01*
X66997334Y-65726374D01*
X67031006Y-65760046D01*
X67132021Y-65793718D01*
X67199365Y-65793718D01*
X67300380Y-65760046D01*
X67435067Y-65625359D01*
X67536082Y-65591687D01*
X67603426Y-65591687D01*
X67704441Y-65625359D01*
X67839128Y-65760046D01*
X67872800Y-65861061D01*
X67872800Y-65928405D01*
X67839128Y-66029420D01*
X67704441Y-66164107D01*
X67603426Y-66197779D01*
X67536082Y-66197779D01*
X67435067Y-66164107D01*
X67300380Y-66029420D01*
X67266708Y-65928405D01*
X67266708Y-65861061D01*
X67300380Y-65760046D01*
X65873068Y-62110399D02*
X65165961Y-62817506D01*
X66671593Y-63245642D02*
X65964487Y-62538535D01*
X65796128Y-62706894D01*
X65728784Y-62841581D01*
X65728784Y-62976268D01*
X65762456Y-63077283D01*
X65863471Y-63245642D01*
X65964487Y-63346657D01*
X66132845Y-63447673D01*
X66233861Y-63481344D01*
X66368548Y-63481344D01*
X66503235Y-63414001D01*
X66671593Y-63245642D01*
X65165961Y-62817506D02*
X64492526Y-63490941D01*
X65930815Y-63986421D02*
X65796128Y-64121108D01*
X65695112Y-64154779D01*
X65627769Y-64154779D01*
X65459410Y-64121108D01*
X65291051Y-64020092D01*
X65021677Y-63750718D01*
X64988006Y-63649703D01*
X64988006Y-63582360D01*
X65021677Y-63481344D01*
X65156364Y-63346657D01*
X65257380Y-63312985D01*
X65324723Y-63312985D01*
X65425738Y-63346657D01*
X65594097Y-63515016D01*
X65627769Y-63616031D01*
X65627769Y-63683375D01*
X65594097Y-63784390D01*
X65459410Y-63919077D01*
X65358395Y-63952749D01*
X65291051Y-63952749D01*
X65190036Y-63919077D01*
X64077016Y-60314348D02*
X63369909Y-61021455D01*
X64875542Y-61449591D02*
X64168435Y-60742485D01*
X64000076Y-60910843D01*
X63932733Y-61045530D01*
X63932733Y-61180217D01*
X63966405Y-61281233D01*
X64067420Y-61449591D01*
X64168435Y-61550607D01*
X64336794Y-61651622D01*
X64437809Y-61685294D01*
X64572496Y-61685294D01*
X64707183Y-61617950D01*
X64875542Y-61449591D01*
X63369909Y-61021455D02*
X62696474Y-61694890D01*
X63798046Y-62527088D02*
X64202107Y-62123027D01*
X64000076Y-62325057D02*
X63292969Y-61617950D01*
X63461328Y-61651622D01*
X63596015Y-61651622D01*
X63697031Y-61617950D01*
X62696474Y-61694890D02*
X62023039Y-62368325D01*
X62653206Y-62257714D02*
X62585863Y-62325057D01*
X62552191Y-62426072D01*
X62552191Y-62493416D01*
X62585863Y-62594431D01*
X62686878Y-62762790D01*
X62855237Y-62931149D01*
X63023595Y-63032164D01*
X63124611Y-63065836D01*
X63191954Y-63065836D01*
X63292969Y-63032164D01*
X63360313Y-62964820D01*
X63393985Y-62863805D01*
X63393985Y-62796462D01*
X63360313Y-62695446D01*
X63259298Y-62527088D01*
X63090939Y-62358729D01*
X62922580Y-62257714D01*
X62821565Y-62224042D01*
X62754221Y-62224042D01*
X62653206Y-62257714D01*
X62608086Y-59990257D02*
X62675430Y-59990257D01*
X62810117Y-59922913D01*
X62877460Y-59855570D01*
X62944804Y-59720883D01*
X62944804Y-59586196D01*
X62911132Y-59485181D01*
X62810117Y-59316822D01*
X62709102Y-59215807D01*
X62540743Y-59114791D01*
X62439728Y-59081120D01*
X62305041Y-59081120D01*
X62170354Y-59148463D01*
X62103010Y-59215807D01*
X62035667Y-59350494D01*
X62035667Y-59417837D01*
X61530590Y-59788226D02*
X61395903Y-59922913D01*
X61362232Y-60023929D01*
X61362232Y-60158616D01*
X61463247Y-60326974D01*
X61698949Y-60562677D01*
X61867308Y-60663692D01*
X62001995Y-60663692D01*
X62103010Y-60630020D01*
X62237697Y-60495333D01*
X62271369Y-60394318D01*
X62271369Y-60259631D01*
X62170354Y-60091272D01*
X61934651Y-59855570D01*
X61766293Y-59754555D01*
X61631606Y-59754555D01*
X61530590Y-59788226D01*
X61631606Y-61101425D02*
X60924499Y-60394318D01*
X60655125Y-60663692D01*
X60621453Y-60764707D01*
X60621453Y-60832051D01*
X60655125Y-60933066D01*
X60756140Y-61034081D01*
X60857155Y-61067753D01*
X60924499Y-61067753D01*
X61025514Y-61034081D01*
X61294888Y-60764707D01*
X60924499Y-61808532D02*
X60217392Y-61101425D01*
X59341926Y-61909547D02*
X60857155Y-62212593D01*
X59847003Y-62886028D02*
X59139896Y-62178921D01*
X58971537Y-62347280D01*
X58904194Y-62481967D01*
X58904194Y-62616654D01*
X58937865Y-62717669D01*
X59038881Y-62886028D01*
X59139896Y-62987043D01*
X59308255Y-63088058D01*
X59409270Y-63121730D01*
X59543957Y-63121730D01*
X59678644Y-63054386D01*
X59847003Y-62886028D01*
X58769507Y-63963524D02*
X59173568Y-63559463D01*
X58971537Y-63761493D02*
X58264430Y-63054386D01*
X58432789Y-63088058D01*
X58567476Y-63088058D01*
X58668491Y-63054386D01*
X58096072Y-64636959D02*
X58500133Y-64232898D01*
X58298102Y-64434928D02*
X57590995Y-63727821D01*
X57759354Y-63761493D01*
X57894041Y-63761493D01*
X57995056Y-63727821D01*
X57130029Y-65064253D02*
X56591281Y-65603001D01*
X57130029Y-65603001D02*
X56591281Y-65064253D01*
X55884174Y-65434642D02*
X55446442Y-65872375D01*
X55951518Y-65906047D01*
X55850503Y-66007062D01*
X55816831Y-66108077D01*
X55816831Y-66175421D01*
X55850503Y-66276436D01*
X56018861Y-66444795D01*
X56119877Y-66478467D01*
X56187220Y-66478467D01*
X56288235Y-66444795D01*
X56490266Y-66242764D01*
X56523938Y-66141749D01*
X56523938Y-66074406D01*
X55446442Y-66343780D02*
X55749487Y-66983543D01*
X55109724Y-66680497D01*
X54671991Y-66646825D02*
X54234259Y-67084558D01*
X54739335Y-67118230D01*
X54638320Y-67219245D01*
X54604648Y-67320260D01*
X54604648Y-67387604D01*
X54638320Y-67488619D01*
X54806678Y-67656978D01*
X54907694Y-67690650D01*
X54975037Y-67690650D01*
X55076052Y-67656978D01*
X55278083Y-67454947D01*
X55311755Y-67353932D01*
X55311755Y-67286589D01*
X59464829Y-66456243D02*
X59128111Y-66792961D01*
X59734203Y-66590930D02*
X58791394Y-66119526D01*
X59262798Y-67062335D01*
X58757722Y-67028663D02*
X58218974Y-67567411D01*
X57747569Y-68577564D02*
X57646554Y-68005144D01*
X58151631Y-68173503D02*
X57444524Y-67466396D01*
X57175150Y-67735770D01*
X57141478Y-67836785D01*
X57141478Y-67904129D01*
X57175150Y-68005144D01*
X57276165Y-68106159D01*
X57377180Y-68139831D01*
X57444524Y-68139831D01*
X57545539Y-68106159D01*
X57814913Y-67836785D01*
X57141478Y-69116312D02*
X57242493Y-69082640D01*
X57377180Y-68947953D01*
X57410852Y-68846938D01*
X57377180Y-68745923D01*
X57107806Y-68476549D01*
X57006791Y-68442877D01*
X56905776Y-68476549D01*
X56771089Y-68611236D01*
X56737417Y-68712251D01*
X56771089Y-68813266D01*
X56838432Y-68880610D01*
X57242493Y-68611236D01*
X56468043Y-68914281D02*
X56198669Y-69183655D01*
X56838432Y-69486701D02*
X56232341Y-68880610D01*
X56131325Y-68846938D01*
X56030310Y-68880610D01*
X55962967Y-68947953D01*
X60812035Y-58194206D02*
X60879379Y-58194206D01*
X61014066Y-58126862D01*
X61081409Y-58059519D01*
X61148753Y-57924832D01*
X61148753Y-57790145D01*
X61115081Y-57689130D01*
X61014066Y-57520771D01*
X60913051Y-57419756D01*
X60744692Y-57318740D01*
X60643677Y-57285069D01*
X60508990Y-57285069D01*
X60374303Y-57352412D01*
X60306959Y-57419756D01*
X60239616Y-57554443D01*
X60239616Y-57621786D01*
X60576333Y-58564595D02*
X59869226Y-57857488D01*
X60239616Y-58901313D02*
X59532509Y-58194206D01*
X59263135Y-58463580D01*
X59229463Y-58564595D01*
X59229463Y-58631939D01*
X59263135Y-58732954D01*
X59364150Y-58833969D01*
X59465165Y-58867641D01*
X59532509Y-58867641D01*
X59633524Y-58833969D01*
X59902898Y-58564595D01*
X58690715Y-59036000D02*
X58556028Y-59170687D01*
X58522356Y-59271702D01*
X58522356Y-59406389D01*
X58623372Y-59574748D01*
X58859074Y-59810450D01*
X59027433Y-59911465D01*
X59162120Y-59911465D01*
X59263135Y-59877793D01*
X59397822Y-59743106D01*
X59431494Y-59642091D01*
X59431494Y-59507404D01*
X59330478Y-59339045D01*
X59094776Y-59103343D01*
X58926417Y-59002328D01*
X58791730Y-59002328D01*
X58690715Y-59036000D01*
X57545875Y-60113496D02*
X59061104Y-60416542D01*
X58050952Y-61089977D02*
X57343845Y-60382870D01*
X57175486Y-60551229D01*
X57108143Y-60685916D01*
X57108143Y-60820603D01*
X57141814Y-60921618D01*
X57242830Y-61089977D01*
X57343845Y-61190992D01*
X57512204Y-61292007D01*
X57613219Y-61325679D01*
X57747906Y-61325679D01*
X57882593Y-61258335D01*
X58050952Y-61089977D01*
X56973456Y-62167473D02*
X57377517Y-61763412D01*
X57175486Y-61965442D02*
X56468379Y-61258335D01*
X56636738Y-61292007D01*
X56771425Y-61292007D01*
X56872440Y-61258335D01*
X56064318Y-61797083D02*
X55996975Y-61797083D01*
X55895960Y-61830755D01*
X55727601Y-61999114D01*
X55693929Y-62100129D01*
X55693929Y-62167473D01*
X55727601Y-62268488D01*
X55794944Y-62335831D01*
X55929631Y-62403175D01*
X56737753Y-62403175D01*
X56300021Y-62840908D01*
X54896245Y-64244683D02*
X54189138Y-63537577D01*
X54020779Y-63705935D01*
X53953436Y-63840622D01*
X53953436Y-63975309D01*
X53987108Y-64076325D01*
X54088123Y-64244683D01*
X54189138Y-64345699D01*
X54357497Y-64446714D01*
X54458512Y-64480386D01*
X54593199Y-64480386D01*
X54727886Y-64413042D01*
X54896245Y-64244683D01*
X53818749Y-65322180D02*
X54222810Y-64918119D01*
X54020779Y-65120149D02*
X53313672Y-64413042D01*
X53482031Y-64446714D01*
X53616718Y-64446714D01*
X53717734Y-64413042D01*
X52875940Y-64850775D02*
X52438207Y-65288508D01*
X52943283Y-65322180D01*
X52842268Y-65423195D01*
X52808596Y-65524210D01*
X52808596Y-65591554D01*
X52842268Y-65692569D01*
X53010627Y-65860928D01*
X53111642Y-65894599D01*
X53178985Y-65894599D01*
X53280001Y-65860928D01*
X53482031Y-65658897D01*
X53515703Y-65557882D01*
X53515703Y-65490538D01*
X59341590Y-70171584D02*
X59004872Y-70508302D01*
X59610964Y-70306271D02*
X58668155Y-69834867D01*
X59139559Y-70777676D01*
X58062063Y-70440958D02*
X57994720Y-70508302D01*
X57961048Y-70609317D01*
X57961048Y-70676661D01*
X57994720Y-70777676D01*
X58095735Y-70946035D01*
X58264094Y-71114393D01*
X58432453Y-71215409D01*
X58533468Y-71249080D01*
X58600811Y-71249080D01*
X58701827Y-71215409D01*
X58769170Y-71148065D01*
X58802842Y-71047050D01*
X58802842Y-70979706D01*
X58769170Y-70878691D01*
X58668155Y-70710332D01*
X58499796Y-70541974D01*
X58331437Y-70440958D01*
X58230422Y-70407287D01*
X58163079Y-70407287D01*
X58062063Y-70440958D01*
X60778431Y-71608425D02*
X60441713Y-71945143D01*
X61047805Y-71743112D02*
X60104996Y-71271708D01*
X60576400Y-72214517D01*
X59970309Y-72820608D02*
X60374370Y-72416547D01*
X60172339Y-72618578D02*
X59465233Y-71911471D01*
X59633591Y-71945143D01*
X59768278Y-71945143D01*
X59869294Y-71911471D01*
X62754087Y-73584082D02*
X62417369Y-73920800D01*
X63023461Y-73718769D02*
X62080652Y-73247365D01*
X62552056Y-74190174D01*
X61710263Y-73752441D02*
X61642919Y-73752441D01*
X61541904Y-73786113D01*
X61373545Y-73954472D01*
X61339873Y-74055487D01*
X61339873Y-74122830D01*
X61373545Y-74223846D01*
X61440889Y-74291189D01*
X61575576Y-74358533D01*
X62383698Y-74358533D01*
X61945965Y-74796265D01*
X64550138Y-75380133D02*
X64213420Y-75716851D01*
X64819512Y-75514820D02*
X63876703Y-75043416D01*
X64348107Y-75986225D01*
X63472642Y-75447477D02*
X63034909Y-75885210D01*
X63539985Y-75918881D01*
X63438970Y-76019897D01*
X63405298Y-76120912D01*
X63405298Y-76188255D01*
X63438970Y-76289271D01*
X63607329Y-76457629D01*
X63708344Y-76491301D01*
X63775688Y-76491301D01*
X63876703Y-76457629D01*
X64078733Y-76255599D01*
X64112405Y-76154584D01*
X64112405Y-76087240D01*
X66346190Y-77176184D02*
X66009472Y-77512902D01*
X66615564Y-77310871D02*
X65672755Y-76839467D01*
X66144159Y-77782276D01*
X65134007Y-77849619D02*
X65605411Y-78321024D01*
X65032992Y-77411887D02*
X65706427Y-77748604D01*
X65268694Y-78186337D01*
X68142241Y-78972235D02*
X67805523Y-79308953D01*
X68411615Y-79106922D02*
X67468806Y-78635518D01*
X67940210Y-79578327D01*
X66660684Y-79443640D02*
X66997401Y-79106922D01*
X67367791Y-79409968D01*
X67300447Y-79409968D01*
X67199432Y-79443640D01*
X67031073Y-79611999D01*
X66997401Y-79713014D01*
X66997401Y-79780357D01*
X67031073Y-79881373D01*
X67199432Y-80049731D01*
X67300447Y-80083403D01*
X67367791Y-80083403D01*
X67468806Y-80049731D01*
X67637165Y-79881373D01*
X67670836Y-79780357D01*
X67670836Y-79713014D01*
X69938292Y-80768287D02*
X69601574Y-81105005D01*
X70207666Y-80902974D02*
X69264857Y-80431570D01*
X69736261Y-81374379D01*
X68490407Y-81206020D02*
X68625094Y-81071333D01*
X68726109Y-81037661D01*
X68793452Y-81037661D01*
X68961811Y-81071333D01*
X69130170Y-81172348D01*
X69399544Y-81441722D01*
X69433216Y-81542738D01*
X69433216Y-81610081D01*
X69399544Y-81711096D01*
X69264857Y-81845783D01*
X69163842Y-81879455D01*
X69096498Y-81879455D01*
X68995483Y-81845783D01*
X68827124Y-81677425D01*
X68793452Y-81576409D01*
X68793452Y-81509066D01*
X68827124Y-81408051D01*
X68961811Y-81273364D01*
X69062826Y-81239692D01*
X69130170Y-81239692D01*
X69231185Y-81273364D01*
X71554738Y-82384733D02*
X71218020Y-82721451D01*
X71824112Y-82519420D02*
X70881303Y-82048016D01*
X71352707Y-82990825D01*
X70477242Y-82452077D02*
X70005837Y-82923481D01*
X71015990Y-83327542D01*
X74125239Y-83271647D02*
X73586491Y-83810395D01*
X74125239Y-83810395D02*
X73586491Y-83271647D01*
X72475324Y-84046097D02*
X72812041Y-83709380D01*
X73182430Y-84012425D01*
X73115087Y-84012425D01*
X73014072Y-84046097D01*
X72845713Y-84214456D01*
X72812041Y-84315471D01*
X72812041Y-84382815D01*
X72845713Y-84483830D01*
X73014072Y-84652189D01*
X73115087Y-84685860D01*
X73182430Y-84685860D01*
X73283446Y-84652189D01*
X73451804Y-84483830D01*
X73485476Y-84382815D01*
X73485476Y-84315471D01*
X72239621Y-84281799D02*
X72711026Y-85224608D01*
X71768217Y-84753204D01*
X75910111Y-86336046D02*
X75809096Y-85763626D01*
X76314172Y-85931985D02*
X75607066Y-85224878D01*
X75337692Y-85494252D01*
X75304020Y-85595267D01*
X75304020Y-85662611D01*
X75337692Y-85763626D01*
X75438707Y-85864641D01*
X75539722Y-85898313D01*
X75607066Y-85898313D01*
X75708081Y-85864641D01*
X75977455Y-85595267D01*
X75607066Y-86571748D02*
X75539722Y-86706435D01*
X75371363Y-86874794D01*
X75270348Y-86908466D01*
X75203005Y-86908466D01*
X75101989Y-86874794D01*
X75034646Y-86807451D01*
X75000974Y-86706435D01*
X75000974Y-86639092D01*
X75034646Y-86538077D01*
X75135661Y-86369718D01*
X75169333Y-86268702D01*
X75169333Y-86201359D01*
X75135661Y-86100344D01*
X75068317Y-86033000D01*
X74967302Y-85999328D01*
X74899959Y-85999328D01*
X74798943Y-86033000D01*
X74630585Y-86201359D01*
X74563241Y-86336046D01*
X74327539Y-86504405D02*
X73923478Y-86908466D01*
X74832615Y-87413542D02*
X74125508Y-86706435D01*
X77302102Y-87189288D02*
X77335774Y-87088273D01*
X77436789Y-86987258D01*
X77571476Y-86919914D01*
X77706163Y-86919914D01*
X77807178Y-86953586D01*
X77975537Y-87054601D01*
X78076552Y-87155616D01*
X78177568Y-87323975D01*
X78211239Y-87424990D01*
X78211239Y-87559677D01*
X78143896Y-87694364D01*
X78076552Y-87761708D01*
X77941865Y-87829051D01*
X77874522Y-87829051D01*
X77638820Y-87593349D01*
X77773507Y-87458662D01*
X77638820Y-88199441D02*
X76931713Y-87492334D01*
X77234759Y-88603502D01*
X76527652Y-87896395D01*
X76898041Y-88940219D02*
X76190934Y-88233112D01*
X76022576Y-88401471D01*
X75955232Y-88536158D01*
X75955232Y-88670845D01*
X75988904Y-88771860D01*
X76089919Y-88940219D01*
X76190934Y-89041234D01*
X76359293Y-89142250D01*
X76460308Y-89175921D01*
X76594995Y-89175921D01*
X76729682Y-89108578D01*
X76898041Y-88940219D01*
X78963466Y-89052683D02*
X79434871Y-89995492D01*
X78492061Y-89524087D01*
X78963466Y-90466896D02*
X78492061Y-89995492D01*
X78256359Y-89759789D02*
X78323703Y-89759789D01*
X78323703Y-89827133D01*
X78256359Y-89827133D01*
X78256359Y-89759789D01*
X78323703Y-89827133D01*
X78155344Y-90332209D02*
X78626749Y-90803614D01*
X78222687Y-90399553D02*
X78155344Y-90399553D01*
X78054329Y-90433225D01*
X77953313Y-90534240D01*
X77919642Y-90635255D01*
X77953313Y-90736270D01*
X78323703Y-91106660D01*
%TD*%
M02*
