M48
; DRILL file {KiCad (5.1.8)-1} date 02/04/21 12:25:40
; FORMAT={-:-/ absolute / inch / decimal}
; #@! TF.CreationDate,2021-02-04T12:25:40-06:00
; #@! TF.GenerationSoftware,Kicad,Pcbnew,(5.1.8)-1
; #@! TF.FileFunction,Plated,1,2,PTH
FMAT,2
INCH
T1C0.0300
T2C0.0315
T3C0.0380
T4C0.0394
T5C0.0630
T6C0.1772
%
G90
G05
T1
X3.0779Y-2.3586
X3.2193Y-2.5
X3.29Y-2.5707
X3.5729Y-1.8636
X3.785Y-2.0757
X3.5559Y-2.8336
X3.6973Y-2.975
X3.768Y-3.0457
X4.0509Y-2.3386
X4.263Y-2.5507
X3.4889Y-3.9626
X3.6303Y-4.104
X3.701Y-4.1747
X3.9839Y-3.4676
X4.196Y-3.6797
T2
X1.8345Y-3.7574
X1.9053Y-3.8282
X1.976Y-3.8989
X2.0467Y-3.9696
X2.3295Y-3.2625
X2.4002Y-3.3332
X2.4709Y-3.4039
X2.5417Y-3.4746
T3
X1.8419Y-4.2103
X1.9126Y-4.1396
T4
X3.8051Y-1.4991
X4.1051Y-1.4991
X2.0249Y-2.6405
X2.0956Y-2.7112
X2.1664Y-2.7819
X2.2371Y-2.8526
X2.3078Y-2.9233
X2.3785Y-2.994
X2.4492Y-2.2162
X2.4492Y-3.0647
X2.5199Y-2.2869
X2.5199Y-3.1354
X2.5906Y-2.3576
X2.5906Y-3.2061
X2.6613Y-2.4283
X2.6613Y-3.2769
X2.732Y-2.499
X2.732Y-3.3476
X2.8028Y-2.5698
X2.8028Y-3.4183
X2.8735Y-2.6405
X2.8735Y-3.489
X2.9442Y-2.7112
X2.9442Y-3.5597
X3.0149Y-2.7819
X3.0149Y-3.6304
X3.0856Y-2.8526
X3.1563Y-2.9233
X3.227Y-2.994
X3.2977Y-3.0647
X3.3684Y-3.1354
X3.4391Y-3.2061
X4.6521Y-3.3641
X4.6521Y-3.6641
X4.5271Y-2.1031
X4.6771Y-2.363
T5
X2.7525Y-3.9672
X2.9195Y-3.8001
X2.9668Y-4.0145
T6
X2.0221Y-1.8281
X4.3321Y-1.8091
X1.9079Y-2.9808
X3.1677Y-1.721
X3.1677Y-4.2407
X4.4276Y-2.9808
X4.3301Y-4.1631
X2.3481Y-4.3531
T0
M30
