%TF.GenerationSoftware,KiCad,Pcbnew,(5.1.8)-1*%
%TF.CreationDate,2021-02-04T12:25:32-06:00*%
%TF.ProjectId,Project - LED Dimmer Board,50726f6a-6563-4742-902d-204c45442044,rev?*%
%TF.SameCoordinates,Original*%
%TF.FileFunction,Soldermask,Top*%
%TF.FilePolarity,Negative*%
%FSLAX46Y46*%
G04 Gerber Fmt 4.6, Leading zero omitted, Abs format (unit mm)*
G04 Created by KiCad (PCBNEW (5.1.8)-1) date 2021-02-04 12:25:32*
%MOMM*%
%LPD*%
G01*
G04 APERTURE LIST*
%ADD10C,9.000000*%
%ADD11C,1.524000*%
%ADD12C,0.100000*%
%ADD13R,1.700000X1.700000*%
%ADD14O,1.700000X1.700000*%
%ADD15C,1.200000*%
%ADD16C,2.600000*%
G04 APERTURE END LIST*
D10*
%TO.C,REF\u002A\u002A*%
X112459979Y-75713118D03*
X80459979Y-43713118D03*
X48459979Y-75713118D03*
X80459979Y-107713118D03*
%TD*%
%TO.C,*%
G36*
G01*
X58052010Y-115342971D02*
X54870029Y-112160990D01*
G75*
G02*
X54870029Y-108979010I1590990J1590990D01*
G01*
X58052010Y-105797029D01*
G75*
G02*
X61233990Y-105797029I1590990J-1590990D01*
G01*
X64415971Y-108979010D01*
G75*
G02*
X64415971Y-112160990I-1590990J-1590990D01*
G01*
X61233990Y-115342971D01*
G75*
G02*
X58052010Y-115342971I-1590990J1590990D01*
G01*
G37*
%TD*%
D11*
%TO.C,J5*%
X48580070Y-105144765D03*
X46784019Y-106940816D03*
%TD*%
D12*
%TO.C,J2*%
G36*
X114678478Y-54581122D02*
G01*
X113828478Y-53108878D01*
X115300722Y-52258878D01*
X116150722Y-53731122D01*
X114678478Y-54581122D01*
G37*
G36*
G01*
X118063478Y-60444114D02*
X118063478Y-60444114D01*
G75*
G02*
X118374600Y-59282992I736122J425000D01*
G01*
X118374600Y-59282992D01*
G75*
G02*
X119535722Y-59594114I425000J-736122D01*
G01*
X119535722Y-59594114D01*
G75*
G02*
X119224600Y-60755236I-736122J-425000D01*
G01*
X119224600Y-60755236D01*
G75*
G02*
X118063478Y-60444114I-425000J736122D01*
G01*
G37*
%TD*%
D13*
%TO.C,J1*%
X96650800Y-38078400D03*
D14*
X104270800Y-38078400D03*
%TD*%
D13*
%TO.C,J3*%
X118164600Y-85449400D03*
D14*
X118164600Y-93069400D03*
%TD*%
D11*
%TO.C,U2*%
X90319493Y-71972702D03*
X95707646Y-77360856D03*
X102891851Y-59400344D03*
X108280005Y-64788498D03*
X93911595Y-75564805D03*
%TD*%
D12*
%TO.C,A1*%
G36*
X87354400Y-80304829D02*
G01*
X88485771Y-81436200D01*
X87354400Y-82567571D01*
X86223029Y-81436200D01*
X87354400Y-80304829D01*
G37*
G36*
G01*
X53795112Y-68298156D02*
X53795112Y-68298156D01*
G75*
G02*
X53795112Y-69429526I-565685J-565685D01*
G01*
X53795112Y-69429526D01*
G75*
G02*
X52663742Y-69429526I-565685J565685D01*
G01*
X52663742Y-69429526D01*
G75*
G02*
X52663742Y-68298156I565685J565685D01*
G01*
X52663742Y-68298156D01*
G75*
G02*
X53795112Y-68298156I565685J-565685D01*
G01*
G37*
G36*
G01*
X86124034Y-79074464D02*
X86124034Y-79074464D01*
G75*
G02*
X86124034Y-80205834I-565685J-565685D01*
G01*
X86124034Y-80205834D01*
G75*
G02*
X84992664Y-80205834I-565685J565685D01*
G01*
X84992664Y-80205834D01*
G75*
G02*
X84992664Y-79074464I565685J565685D01*
G01*
X84992664Y-79074464D01*
G75*
G02*
X86124034Y-79074464I565685J-565685D01*
G01*
G37*
G36*
G01*
X55591163Y-70094208D02*
X55591163Y-70094208D01*
G75*
G02*
X55591163Y-71225578I-565685J-565685D01*
G01*
X55591163Y-71225578D01*
G75*
G02*
X54459793Y-71225578I-565685J565685D01*
G01*
X54459793Y-71225578D01*
G75*
G02*
X54459793Y-70094208I565685J565685D01*
G01*
X54459793Y-70094208D01*
G75*
G02*
X55591163Y-70094208I565685J-565685D01*
G01*
G37*
G36*
G01*
X84327983Y-77278413D02*
X84327983Y-77278413D01*
G75*
G02*
X84327983Y-78409783I-565685J-565685D01*
G01*
X84327983Y-78409783D01*
G75*
G02*
X83196613Y-78409783I-565685J565685D01*
G01*
X83196613Y-78409783D01*
G75*
G02*
X83196613Y-77278413I565685J565685D01*
G01*
X83196613Y-77278413D01*
G75*
G02*
X84327983Y-77278413I565685J-565685D01*
G01*
G37*
G36*
G01*
X57387214Y-71890259D02*
X57387214Y-71890259D01*
G75*
G02*
X57387214Y-73021629I-565685J-565685D01*
G01*
X57387214Y-73021629D01*
G75*
G02*
X56255844Y-73021629I-565685J565685D01*
G01*
X56255844Y-73021629D01*
G75*
G02*
X56255844Y-71890259I565685J565685D01*
G01*
X56255844Y-71890259D01*
G75*
G02*
X57387214Y-71890259I565685J-565685D01*
G01*
G37*
G36*
G01*
X82531931Y-75482361D02*
X82531931Y-75482361D01*
G75*
G02*
X82531931Y-76613731I-565685J-565685D01*
G01*
X82531931Y-76613731D01*
G75*
G02*
X81400561Y-76613731I-565685J565685D01*
G01*
X81400561Y-76613731D01*
G75*
G02*
X81400561Y-75482361I565685J565685D01*
G01*
X81400561Y-75482361D01*
G75*
G02*
X82531931Y-75482361I565685J-565685D01*
G01*
G37*
G36*
G01*
X59183265Y-73686310D02*
X59183265Y-73686310D01*
G75*
G02*
X59183265Y-74817680I-565685J-565685D01*
G01*
X59183265Y-74817680D01*
G75*
G02*
X58051895Y-74817680I-565685J565685D01*
G01*
X58051895Y-74817680D01*
G75*
G02*
X58051895Y-73686310I565685J565685D01*
G01*
X58051895Y-73686310D01*
G75*
G02*
X59183265Y-73686310I565685J-565685D01*
G01*
G37*
G36*
G01*
X80735880Y-73686310D02*
X80735880Y-73686310D01*
G75*
G02*
X80735880Y-74817680I-565685J-565685D01*
G01*
X80735880Y-74817680D01*
G75*
G02*
X79604510Y-74817680I-565685J565685D01*
G01*
X79604510Y-74817680D01*
G75*
G02*
X79604510Y-73686310I565685J565685D01*
G01*
X79604510Y-73686310D01*
G75*
G02*
X80735880Y-73686310I565685J-565685D01*
G01*
G37*
G36*
G01*
X60979317Y-75482361D02*
X60979317Y-75482361D01*
G75*
G02*
X60979317Y-76613731I-565685J-565685D01*
G01*
X60979317Y-76613731D01*
G75*
G02*
X59847947Y-76613731I-565685J565685D01*
G01*
X59847947Y-76613731D01*
G75*
G02*
X59847947Y-75482361I565685J565685D01*
G01*
X59847947Y-75482361D01*
G75*
G02*
X60979317Y-75482361I565685J-565685D01*
G01*
G37*
G36*
G01*
X78939829Y-71890259D02*
X78939829Y-71890259D01*
G75*
G02*
X78939829Y-73021629I-565685J-565685D01*
G01*
X78939829Y-73021629D01*
G75*
G02*
X77808459Y-73021629I-565685J565685D01*
G01*
X77808459Y-73021629D01*
G75*
G02*
X77808459Y-71890259I565685J565685D01*
G01*
X77808459Y-71890259D01*
G75*
G02*
X78939829Y-71890259I565685J-565685D01*
G01*
G37*
G36*
G01*
X62775368Y-77278413D02*
X62775368Y-77278413D01*
G75*
G02*
X62775368Y-78409783I-565685J-565685D01*
G01*
X62775368Y-78409783D01*
G75*
G02*
X61643998Y-78409783I-565685J565685D01*
G01*
X61643998Y-78409783D01*
G75*
G02*
X61643998Y-77278413I565685J565685D01*
G01*
X61643998Y-77278413D01*
G75*
G02*
X62775368Y-77278413I565685J-565685D01*
G01*
G37*
G36*
G01*
X77143778Y-70094208D02*
X77143778Y-70094208D01*
G75*
G02*
X77143778Y-71225578I-565685J-565685D01*
G01*
X77143778Y-71225578D01*
G75*
G02*
X76012408Y-71225578I-565685J565685D01*
G01*
X76012408Y-71225578D01*
G75*
G02*
X76012408Y-70094208I565685J565685D01*
G01*
X76012408Y-70094208D01*
G75*
G02*
X77143778Y-70094208I565685J-565685D01*
G01*
G37*
G36*
G01*
X64571419Y-79074464D02*
X64571419Y-79074464D01*
G75*
G02*
X64571419Y-80205834I-565685J-565685D01*
G01*
X64571419Y-80205834D01*
G75*
G02*
X63440049Y-80205834I-565685J565685D01*
G01*
X63440049Y-80205834D01*
G75*
G02*
X63440049Y-79074464I565685J565685D01*
G01*
X63440049Y-79074464D01*
G75*
G02*
X64571419Y-79074464I565685J-565685D01*
G01*
G37*
G36*
G01*
X75347726Y-68298156D02*
X75347726Y-68298156D01*
G75*
G02*
X75347726Y-69429526I-565685J-565685D01*
G01*
X75347726Y-69429526D01*
G75*
G02*
X74216356Y-69429526I-565685J565685D01*
G01*
X74216356Y-69429526D01*
G75*
G02*
X74216356Y-68298156I565685J565685D01*
G01*
X74216356Y-68298156D01*
G75*
G02*
X75347726Y-68298156I565685J-565685D01*
G01*
G37*
G36*
G01*
X66367470Y-80870515D02*
X66367470Y-80870515D01*
G75*
G02*
X66367470Y-82001885I-565685J-565685D01*
G01*
X66367470Y-82001885D01*
G75*
G02*
X65236100Y-82001885I-565685J565685D01*
G01*
X65236100Y-82001885D01*
G75*
G02*
X65236100Y-80870515I565685J565685D01*
G01*
X65236100Y-80870515D01*
G75*
G02*
X66367470Y-80870515I565685J-565685D01*
G01*
G37*
G36*
G01*
X73551675Y-66502105D02*
X73551675Y-66502105D01*
G75*
G02*
X73551675Y-67633475I-565685J-565685D01*
G01*
X73551675Y-67633475D01*
G75*
G02*
X72420305Y-67633475I-565685J565685D01*
G01*
X72420305Y-67633475D01*
G75*
G02*
X72420305Y-66502105I565685J565685D01*
G01*
X72420305Y-66502105D01*
G75*
G02*
X73551675Y-66502105I565685J-565685D01*
G01*
G37*
G36*
G01*
X68163522Y-82666566D02*
X68163522Y-82666566D01*
G75*
G02*
X68163522Y-83797936I-565685J-565685D01*
G01*
X68163522Y-83797936D01*
G75*
G02*
X67032152Y-83797936I-565685J565685D01*
G01*
X67032152Y-83797936D01*
G75*
G02*
X67032152Y-82666566I565685J565685D01*
G01*
X67032152Y-82666566D01*
G75*
G02*
X68163522Y-82666566I565685J-565685D01*
G01*
G37*
G36*
G01*
X71755624Y-64706054D02*
X71755624Y-64706054D01*
G75*
G02*
X71755624Y-65837424I-565685J-565685D01*
G01*
X71755624Y-65837424D01*
G75*
G02*
X70624254Y-65837424I-565685J565685D01*
G01*
X70624254Y-65837424D01*
G75*
G02*
X70624254Y-64706054I565685J565685D01*
G01*
X70624254Y-64706054D01*
G75*
G02*
X71755624Y-64706054I565685J-565685D01*
G01*
G37*
G36*
G01*
X69959573Y-84462617D02*
X69959573Y-84462617D01*
G75*
G02*
X69959573Y-85593987I-565685J-565685D01*
G01*
X69959573Y-85593987D01*
G75*
G02*
X68828203Y-85593987I-565685J565685D01*
G01*
X68828203Y-85593987D01*
G75*
G02*
X68828203Y-84462617I565685J565685D01*
G01*
X68828203Y-84462617D01*
G75*
G02*
X69959573Y-84462617I565685J-565685D01*
G01*
G37*
G36*
G01*
X69959573Y-62910003D02*
X69959573Y-62910003D01*
G75*
G02*
X69959573Y-64041373I-565685J-565685D01*
G01*
X69959573Y-64041373D01*
G75*
G02*
X68828203Y-64041373I-565685J565685D01*
G01*
X68828203Y-64041373D01*
G75*
G02*
X68828203Y-62910003I565685J565685D01*
G01*
X68828203Y-62910003D01*
G75*
G02*
X69959573Y-62910003I565685J-565685D01*
G01*
G37*
G36*
G01*
X71755624Y-86258669D02*
X71755624Y-86258669D01*
G75*
G02*
X71755624Y-87390039I-565685J-565685D01*
G01*
X71755624Y-87390039D01*
G75*
G02*
X70624254Y-87390039I-565685J565685D01*
G01*
X70624254Y-87390039D01*
G75*
G02*
X70624254Y-86258669I565685J565685D01*
G01*
X70624254Y-86258669D01*
G75*
G02*
X71755624Y-86258669I565685J-565685D01*
G01*
G37*
G36*
G01*
X68163522Y-61113952D02*
X68163522Y-61113952D01*
G75*
G02*
X68163522Y-62245322I-565685J-565685D01*
G01*
X68163522Y-62245322D01*
G75*
G02*
X67032152Y-62245322I-565685J565685D01*
G01*
X67032152Y-62245322D01*
G75*
G02*
X67032152Y-61113952I565685J565685D01*
G01*
X67032152Y-61113952D01*
G75*
G02*
X68163522Y-61113952I565685J-565685D01*
G01*
G37*
G36*
G01*
X73551675Y-88054720D02*
X73551675Y-88054720D01*
G75*
G02*
X73551675Y-89186090I-565685J-565685D01*
G01*
X73551675Y-89186090D01*
G75*
G02*
X72420305Y-89186090I-565685J565685D01*
G01*
X72420305Y-89186090D01*
G75*
G02*
X72420305Y-88054720I565685J565685D01*
G01*
X72420305Y-88054720D01*
G75*
G02*
X73551675Y-88054720I565685J-565685D01*
G01*
G37*
G36*
G01*
X66367470Y-59317900D02*
X66367470Y-59317900D01*
G75*
G02*
X66367470Y-60449270I-565685J-565685D01*
G01*
X66367470Y-60449270D01*
G75*
G02*
X65236100Y-60449270I-565685J565685D01*
G01*
X65236100Y-60449270D01*
G75*
G02*
X65236100Y-59317900I565685J565685D01*
G01*
X65236100Y-59317900D01*
G75*
G02*
X66367470Y-59317900I565685J-565685D01*
G01*
G37*
G36*
G01*
X75347726Y-89850771D02*
X75347726Y-89850771D01*
G75*
G02*
X75347726Y-90982141I-565685J-565685D01*
G01*
X75347726Y-90982141D01*
G75*
G02*
X74216356Y-90982141I-565685J565685D01*
G01*
X74216356Y-90982141D01*
G75*
G02*
X74216356Y-89850771I565685J565685D01*
G01*
X74216356Y-89850771D01*
G75*
G02*
X75347726Y-89850771I565685J-565685D01*
G01*
G37*
G36*
G01*
X64571419Y-57521849D02*
X64571419Y-57521849D01*
G75*
G02*
X64571419Y-58653219I-565685J-565685D01*
G01*
X64571419Y-58653219D01*
G75*
G02*
X63440049Y-58653219I-565685J565685D01*
G01*
X63440049Y-58653219D01*
G75*
G02*
X63440049Y-57521849I565685J565685D01*
G01*
X63440049Y-57521849D01*
G75*
G02*
X64571419Y-57521849I565685J-565685D01*
G01*
G37*
G36*
G01*
X77143778Y-91646822D02*
X77143778Y-91646822D01*
G75*
G02*
X77143778Y-92778192I-565685J-565685D01*
G01*
X77143778Y-92778192D01*
G75*
G02*
X76012408Y-92778192I-565685J565685D01*
G01*
X76012408Y-92778192D01*
G75*
G02*
X76012408Y-91646822I565685J565685D01*
G01*
X76012408Y-91646822D01*
G75*
G02*
X77143778Y-91646822I565685J-565685D01*
G01*
G37*
G36*
G01*
X62775368Y-55725798D02*
X62775368Y-55725798D01*
G75*
G02*
X62775368Y-56857168I-565685J-565685D01*
G01*
X62775368Y-56857168D01*
G75*
G02*
X61643998Y-56857168I-565685J565685D01*
G01*
X61643998Y-56857168D01*
G75*
G02*
X61643998Y-55725798I565685J565685D01*
G01*
X61643998Y-55725798D01*
G75*
G02*
X62775368Y-55725798I565685J-565685D01*
G01*
G37*
G36*
G01*
X51999061Y-66502105D02*
X51999061Y-66502105D01*
G75*
G02*
X51999061Y-67633475I-565685J-565685D01*
G01*
X51999061Y-67633475D01*
G75*
G02*
X50867691Y-67633475I-565685J565685D01*
G01*
X50867691Y-67633475D01*
G75*
G02*
X50867691Y-66502105I565685J565685D01*
G01*
X50867691Y-66502105D01*
G75*
G02*
X51999061Y-66502105I565685J-565685D01*
G01*
G37*
%TD*%
D15*
%TO.C,U4*%
X59169841Y-82866799D03*
X46597482Y-95439158D03*
X60965892Y-84662851D03*
X48393533Y-97235209D03*
X62761943Y-86458902D03*
X50189585Y-99031260D03*
X64557994Y-88254953D03*
X51985636Y-100827312D03*
%TD*%
D11*
%TO.C,U1*%
X78178293Y-59907702D03*
X83566446Y-65295856D03*
X90750651Y-47335344D03*
X96138805Y-52723498D03*
X81770395Y-63499805D03*
%TD*%
%TO.C,U3*%
X92209795Y-104241405D03*
X106578205Y-93465098D03*
X101190051Y-88076944D03*
X94005846Y-106037456D03*
X88617693Y-100649302D03*
%TD*%
D12*
%TO.C,J4*%
G36*
X72317361Y-96523719D02*
G01*
X74155839Y-94685241D01*
X75994317Y-96523719D01*
X74155839Y-98362197D01*
X72317361Y-96523719D01*
G37*
D16*
X69913198Y-100766360D03*
X75357921Y-101968441D03*
%TD*%
%TO.C,REF\u002A\u002A*%
G36*
G01*
X49771610Y-51207971D02*
X46589629Y-48025990D01*
G75*
G02*
X46589629Y-44844010I1590990J1590990D01*
G01*
X49771610Y-41662029D01*
G75*
G02*
X52953590Y-41662029I1590990J-1590990D01*
G01*
X56135571Y-44844010D01*
G75*
G02*
X56135571Y-48025990I-1590990J-1590990D01*
G01*
X52953590Y-51207971D01*
G75*
G02*
X49771610Y-51207971I-1590990J1590990D01*
G01*
G37*
%TD*%
%TO.C,REF\u002A\u002A*%
G36*
G01*
X114809571Y-47543390D02*
X111627590Y-50725371D01*
G75*
G02*
X108445610Y-50725371I-1590990J1590990D01*
G01*
X105263629Y-47543390D01*
G75*
G02*
X105263629Y-44361410I1590990J1590990D01*
G01*
X108445610Y-41179429D01*
G75*
G02*
X111627590Y-41179429I1590990J-1590990D01*
G01*
X114809571Y-44361410D01*
G75*
G02*
X114809571Y-47543390I-1590990J-1590990D01*
G01*
G37*
%TD*%
%TO.C,*%
G36*
G01*
X108394810Y-110516971D02*
X105212829Y-107334990D01*
G75*
G02*
X105212829Y-104153010I1590990J1590990D01*
G01*
X108394810Y-100971029D01*
G75*
G02*
X111576790Y-100971029I1590990J-1590990D01*
G01*
X114758771Y-104153010D01*
G75*
G02*
X114758771Y-107334990I-1590990J-1590990D01*
G01*
X111576790Y-110516971D01*
G75*
G02*
X108394810Y-110516971I-1590990J1590990D01*
G01*
G37*
%TD*%
M02*
