%TF.GenerationSoftware,KiCad,Pcbnew,(5.1.8)-1*%
%TF.CreationDate,2021-02-04T12:25:32-06:00*%
%TF.ProjectId,Project - LED Dimmer Board,50726f6a-6563-4742-902d-204c45442044,rev?*%
%TF.SameCoordinates,Original*%
%TF.FileFunction,Legend,Top*%
%TF.FilePolarity,Positive*%
%FSLAX46Y46*%
G04 Gerber Fmt 4.6, Leading zero omitted, Abs format (unit mm)*
G04 Created by KiCad (PCBNEW (5.1.8)-1) date 2021-02-04 12:25:32*
%MOMM*%
%LPD*%
G01*
G04 APERTURE LIST*
%ADD10C,0.150000*%
%ADD11C,0.120000*%
%ADD12C,0.152400*%
G04 APERTURE END LIST*
D10*
X46807293Y-66037212D02*
X46676815Y-66100347D01*
X46508456Y-66268705D01*
X46470576Y-66373930D01*
X46466367Y-66445482D01*
X46491621Y-66554915D01*
X46550546Y-66630677D01*
X46643143Y-66672766D01*
X46706278Y-66676975D01*
X46803084Y-66647512D01*
X46967234Y-66550706D01*
X47064040Y-66521243D01*
X47127175Y-66525452D01*
X47219772Y-66567542D01*
X47278698Y-66643304D01*
X47303952Y-66752737D01*
X47299743Y-66824289D01*
X47261862Y-66929513D01*
X47093503Y-67097872D01*
X46963025Y-67161007D01*
X46584218Y-67135753D02*
X46314844Y-67405127D01*
X46689442Y-67501933D02*
X46159112Y-66820080D01*
X46066515Y-66777991D01*
X45969708Y-66807453D01*
X45902365Y-66874797D01*
X45363617Y-67413545D02*
X45687708Y-67830233D01*
X45780305Y-67872322D01*
X45877111Y-67842860D01*
X46011798Y-67708173D01*
X46049679Y-67602948D01*
X45393080Y-67451426D02*
X45430960Y-67346201D01*
X45599319Y-67177843D01*
X45696125Y-67148380D01*
X45788723Y-67190469D01*
X45847648Y-67266231D01*
X45872902Y-67375664D01*
X45835021Y-67480888D01*
X45666663Y-67649247D01*
X45628782Y-67754471D01*
X45026899Y-67750262D02*
X45439378Y-68280592D01*
X45321527Y-68129070D02*
X45346781Y-68238503D01*
X45342572Y-68310055D01*
X45304691Y-68415279D01*
X45237348Y-68482623D01*
X44589167Y-68187995D02*
X45001646Y-68718325D01*
X44883794Y-68566802D02*
X44909048Y-68676236D01*
X44904839Y-68747788D01*
X44866959Y-68853012D01*
X44799615Y-68920356D01*
X44631256Y-69088714D02*
X44050419Y-68726743D01*
X44294539Y-69425432D02*
X44050419Y-68726743D01*
X43970448Y-68469996D01*
X43974657Y-68398444D01*
X44012538Y-68293219D01*
X46385555Y-64058155D02*
X47004273Y-64853650D01*
X45981494Y-64462216D01*
X46600212Y-65257711D01*
X45644776Y-64798934D02*
X46057255Y-65329264D01*
X46263495Y-65594429D02*
X46267704Y-65522876D01*
X46204569Y-65518667D01*
X46200360Y-65590220D01*
X46263495Y-65594429D01*
X46204569Y-65518667D01*
X45417492Y-65969027D02*
X44916625Y-65325055D01*
X44891371Y-65215621D01*
X44895580Y-65144069D01*
X44933460Y-65038845D01*
X45034476Y-64937829D01*
X45131282Y-64908367D01*
X45034476Y-65476578D02*
X45072356Y-65371353D01*
X45207043Y-65236666D01*
X45303850Y-65207204D01*
X45366984Y-65211412D01*
X45459582Y-65253502D01*
X45636358Y-65480786D01*
X45661612Y-65590220D01*
X45657403Y-65661772D01*
X45619522Y-65766996D01*
X45484835Y-65901683D01*
X45388029Y-65931146D01*
X44668295Y-65775414D02*
X45287014Y-66570909D01*
X44365250Y-66078460D02*
X44689340Y-66495148D01*
X44781938Y-66537238D01*
X44878744Y-66507775D01*
X44979759Y-66406760D01*
X45017640Y-66301535D01*
X45021849Y-66229983D01*
X43927517Y-66516193D02*
X44024323Y-66486730D01*
X44116920Y-66528820D01*
X44647251Y-67210673D01*
X43658143Y-66785567D02*
X44070622Y-67315897D01*
X44276861Y-67581062D02*
X44281070Y-67509510D01*
X44217936Y-67505301D01*
X44213727Y-67576853D01*
X44276861Y-67581062D01*
X44217936Y-67505301D01*
X43430859Y-67955660D02*
X42929991Y-67311688D01*
X42904737Y-67202255D01*
X42908946Y-67130702D01*
X42946827Y-67025478D01*
X43047842Y-66924463D01*
X43144649Y-66895000D01*
X43047842Y-67463211D02*
X43085723Y-67357987D01*
X43220410Y-67223300D01*
X43317216Y-67193837D01*
X43380351Y-67198046D01*
X43472948Y-67240135D01*
X43649725Y-67467420D01*
X43674979Y-67576853D01*
X43670770Y-67648405D01*
X43632889Y-67753630D01*
X43498202Y-67888317D01*
X43401396Y-67917779D01*
X42681662Y-67762048D02*
X43300381Y-68557543D01*
X42378616Y-68065093D02*
X42702707Y-68481781D01*
X42795304Y-68523871D01*
X42892111Y-68494408D01*
X42993126Y-68393393D01*
X43031006Y-68288169D01*
X43035215Y-68216616D01*
X42555393Y-68831126D02*
X42286019Y-69100500D01*
X42660617Y-69197306D02*
X42130287Y-68515453D01*
X42037690Y-68473363D01*
X41940884Y-68502826D01*
X41873540Y-68570170D01*
D11*
%TO.C,REF\u002A\u002A*%
X38100379Y-104106318D02*
X38100379Y-47413518D01*
X51732579Y-33713118D02*
X108425379Y-33713118D01*
X122100379Y-47438918D02*
X122100379Y-104131718D01*
X51783379Y-117713118D02*
X108399979Y-117713118D01*
X85459979Y-107713118D02*
G75*
G03*
X85459979Y-107713118I-5000000J0D01*
G01*
X53459979Y-75713118D02*
G75*
G03*
X53459979Y-75713118I-5000000J0D01*
G01*
X117459979Y-75713118D02*
G75*
G03*
X117459979Y-75713118I-5000000J0D01*
G01*
X85459979Y-43713118D02*
G75*
G03*
X85459979Y-43713118I-5000000J0D01*
G01*
D12*
%TO.C,J5*%
X43245798Y-105701541D02*
X48023294Y-110479037D01*
X47340795Y-101606544D02*
X43245798Y-105701541D01*
X52118291Y-106384040D02*
X47340795Y-101606544D01*
X48023294Y-110479037D02*
X52118291Y-106384040D01*
D11*
%TO.C,U2*%
X87445811Y-72691123D02*
X94809621Y-80054933D01*
X94809621Y-80054933D02*
X111153687Y-63710867D01*
X111153687Y-63710867D02*
X103789877Y-56347057D01*
X103789877Y-56347057D02*
X87445811Y-72691123D01*
%TO.C,A1*%
X78374144Y-95988458D02*
X91130350Y-83232251D01*
X47657425Y-65271739D02*
X78374144Y-95988458D01*
X60413632Y-52515533D02*
X47657425Y-65271739D01*
X60413632Y-56291483D02*
X62301607Y-54403508D01*
X85558349Y-81436200D02*
X60413632Y-56291483D01*
X85558349Y-81436200D02*
X87446324Y-79548225D01*
X51433376Y-65271739D02*
X49545400Y-67159714D01*
X78374144Y-92212507D02*
X51433376Y-65271739D01*
X78374144Y-92212507D02*
X76486169Y-94100482D01*
X91130350Y-83232251D02*
X89242375Y-81344276D01*
X87446324Y-79548225D02*
X60413632Y-52515533D01*
X87354400Y-83232251D02*
X89242375Y-81344276D01*
X85558349Y-81436200D02*
X87354400Y-83232251D01*
%TO.C,U4*%
X54733595Y-105108844D02*
X68861589Y-90980851D01*
X47078316Y-97475627D02*
X54022104Y-104419415D01*
X47078316Y-97475627D02*
X45041847Y-95439158D01*
X54715634Y-105126804D02*
X42574328Y-92985498D01*
X42574328Y-92985498D02*
X56511686Y-79012220D01*
X56511686Y-79012220D02*
X68688913Y-91189447D01*
X68688913Y-91189447D02*
X54715634Y-105090883D01*
%TO.C,U1*%
X91648677Y-44282057D02*
X75304611Y-60626123D01*
X99012487Y-51645867D02*
X91648677Y-44282057D01*
X82668421Y-67989933D02*
X99012487Y-51645867D01*
X75304611Y-60626123D02*
X82668421Y-67989933D01*
%TO.C,U3*%
X102088077Y-85023657D02*
X85744011Y-101367723D01*
X109451887Y-92387467D02*
X102088077Y-85023657D01*
X93107821Y-108731533D02*
X109451887Y-92387467D01*
X85744011Y-101367723D02*
X93107821Y-108731533D01*
%TO.C,J4*%
X71468833Y-92365931D02*
X72699199Y-93596297D01*
X70238467Y-93596297D02*
X71468833Y-92365931D01*
X77974216Y-99210725D02*
X76560002Y-100624938D01*
X75994317Y-97230826D02*
X77974216Y-99210725D01*
X71468833Y-92705342D02*
X73448732Y-94685241D01*
X61145074Y-103029101D02*
X71468833Y-92705342D01*
X67650457Y-109534484D02*
X61145074Y-103029101D01*
X74014418Y-103170523D02*
X67650457Y-109534484D01*
%TO.C,J5*%
D10*
X52916392Y-107233874D02*
X52411316Y-107738950D01*
X52276629Y-107806294D01*
X52141942Y-107806294D01*
X52007255Y-107738950D01*
X51939912Y-107671607D01*
X53589827Y-107907309D02*
X53253110Y-107570592D01*
X52882721Y-107873637D01*
X52950064Y-107873637D01*
X53051079Y-107907309D01*
X53219438Y-108075668D01*
X53253110Y-108176683D01*
X53253110Y-108244027D01*
X53219438Y-108345042D01*
X53051079Y-108513401D01*
X52950064Y-108547072D01*
X52882721Y-108547072D01*
X52781705Y-108513401D01*
X52613347Y-108345042D01*
X52579675Y-108244027D01*
X52579675Y-108176683D01*
X45633589Y-101403119D02*
X45768276Y-101268432D01*
X45801948Y-101167417D01*
X45801948Y-101100073D01*
X45768276Y-100931714D01*
X45667261Y-100763356D01*
X45397887Y-100493982D01*
X45296872Y-100460310D01*
X45229528Y-100460310D01*
X45128513Y-100493982D01*
X44993826Y-100628669D01*
X44960154Y-100729684D01*
X44960154Y-100797027D01*
X44993826Y-100898043D01*
X45162185Y-101066401D01*
X45263200Y-101100073D01*
X45330544Y-101100073D01*
X45431559Y-101066401D01*
X45566246Y-100931714D01*
X45599918Y-100830699D01*
X45599918Y-100763356D01*
X45566246Y-100662340D01*
X45465231Y-100157264D02*
X46408040Y-100628669D01*
X45936635Y-99685860D01*
X47418192Y-99618516D02*
X46711085Y-98911409D01*
X46980459Y-98642035D01*
X47081475Y-98608364D01*
X47148818Y-98608364D01*
X47249833Y-98642035D01*
X47350849Y-98743051D01*
X47384520Y-98844066D01*
X47384520Y-98911409D01*
X47350849Y-99012425D01*
X47081475Y-99281799D01*
X47586551Y-98507348D02*
X48192642Y-98844066D01*
X47990612Y-98372661D01*
X48462016Y-98574692D01*
X48125299Y-97968600D01*
X48866077Y-98170631D02*
X48394673Y-97699226D01*
X48529360Y-97833913D02*
X48495688Y-97732898D01*
X48495688Y-97665555D01*
X48529360Y-97564539D01*
X48596703Y-97497196D01*
X50630380Y-103100010D02*
X51169128Y-102561262D01*
X44434003Y-109296387D02*
X44972751Y-108757639D01*
X44972751Y-109296387D02*
X44434003Y-108757639D01*
%TO.C,J2*%
X113262115Y-51094575D02*
X113619258Y-51713165D01*
X113649447Y-51860692D01*
X113614587Y-51990790D01*
X113514679Y-52103458D01*
X113432200Y-52151077D01*
X113680888Y-50962768D02*
X113698317Y-50897719D01*
X113756987Y-50808861D01*
X113963183Y-50689813D01*
X114069471Y-50683434D01*
X114134520Y-50700863D01*
X114223378Y-50759532D01*
X114270997Y-50842011D01*
X114301187Y-50989538D01*
X114092029Y-51770124D01*
X114628140Y-51460601D01*
X115530196Y-55067446D02*
X116190025Y-54686493D01*
X116050587Y-55206884D02*
X115669635Y-54547055D01*
X117774693Y-58904229D02*
X118434522Y-58523276D01*
%TO.C,J1*%
X93773180Y-38411733D02*
X94487466Y-38411733D01*
X94630323Y-38459352D01*
X94725561Y-38554590D01*
X94773180Y-38697447D01*
X94773180Y-38792685D01*
X94773180Y-37411733D02*
X94773180Y-37983161D01*
X94773180Y-37697447D02*
X93773180Y-37697447D01*
X93916038Y-37792685D01*
X94011276Y-37887923D01*
X94058895Y-37983161D01*
X98347828Y-38433952D02*
X98347828Y-37672047D01*
X98728780Y-38053000D02*
X97966876Y-38053000D01*
X102792828Y-38408552D02*
X102792828Y-37646647D01*
%TO.C,J3*%
X117831266Y-82571780D02*
X117831266Y-83286066D01*
X117783647Y-83428923D01*
X117688409Y-83524161D01*
X117545552Y-83571780D01*
X117450314Y-83571780D01*
X118212219Y-82571780D02*
X118831266Y-82571780D01*
X118497933Y-82952733D01*
X118640790Y-82952733D01*
X118736028Y-83000352D01*
X118783647Y-83047971D01*
X118831266Y-83143209D01*
X118831266Y-83381304D01*
X118783647Y-83476542D01*
X118736028Y-83524161D01*
X118640790Y-83571780D01*
X118355076Y-83571780D01*
X118259838Y-83524161D01*
X118212219Y-83476542D01*
X117809047Y-87146428D02*
X118570952Y-87146428D01*
X118190000Y-87527380D02*
X118190000Y-86765476D01*
X117834447Y-91591428D02*
X118596352Y-91591428D01*
%TO.C,U2*%
X90127058Y-76184870D02*
X89400085Y-76911843D01*
X89357322Y-77040132D01*
X89357322Y-77125658D01*
X89400085Y-77253948D01*
X89571138Y-77425000D01*
X89699427Y-77467763D01*
X89784953Y-77467763D01*
X89913243Y-77425000D01*
X90640216Y-76698027D01*
X90939558Y-77168421D02*
X91025084Y-77168421D01*
X91153373Y-77211185D01*
X91367189Y-77425000D01*
X91409952Y-77553290D01*
X91409952Y-77638816D01*
X91367189Y-77767105D01*
X91281663Y-77852631D01*
X91110610Y-77938158D01*
X90084295Y-77938158D01*
X90640216Y-78494078D01*
X98701064Y-78772038D02*
X97803038Y-77874013D01*
X98743827Y-78216118D01*
X98401722Y-77275329D01*
X99299748Y-78173355D01*
X100026721Y-77360855D02*
X99983958Y-77489145D01*
X99812905Y-77660197D01*
X99684616Y-77702960D01*
X99556327Y-77660197D01*
X99214222Y-77318092D01*
X99171458Y-77189803D01*
X99214222Y-77061513D01*
X99385274Y-76890461D01*
X99513563Y-76847698D01*
X99641853Y-76890461D01*
X99727379Y-76975987D01*
X99385274Y-77489145D01*
X100881983Y-76591119D02*
X100411589Y-76120725D01*
X100283300Y-76077961D01*
X100155010Y-76120725D01*
X99983958Y-76291777D01*
X99941195Y-76420066D01*
X100839220Y-76548356D02*
X100796457Y-76676645D01*
X100582642Y-76890461D01*
X100454352Y-76933224D01*
X100326063Y-76890461D01*
X100240537Y-76804935D01*
X100197773Y-76676645D01*
X100240537Y-76548356D01*
X100454352Y-76334540D01*
X100497115Y-76206251D01*
X100710931Y-75564804D02*
X101309615Y-76163488D01*
X100796457Y-75650330D02*
X100796457Y-75564804D01*
X100839220Y-75436515D01*
X100967510Y-75308225D01*
X101095799Y-75265462D01*
X101224088Y-75308225D01*
X101694483Y-75778620D01*
X101138562Y-74538489D02*
X102250403Y-75222699D01*
X101780009Y-74410200D01*
X102592508Y-74880594D01*
X101908298Y-73768753D01*
X103447771Y-73939805D02*
X103405008Y-74068095D01*
X103233955Y-74239147D01*
X103105666Y-74281910D01*
X102977377Y-74239147D01*
X102635272Y-73897042D01*
X102592508Y-73768753D01*
X102635272Y-73640463D01*
X102806324Y-73469411D01*
X102934613Y-73426648D01*
X103062903Y-73469411D01*
X103148429Y-73554937D01*
X102806324Y-74068095D01*
X104046455Y-73426648D02*
X103918165Y-73469411D01*
X103789876Y-73426648D01*
X103020140Y-72656911D01*
X104516849Y-72956253D02*
X104388560Y-72999016D01*
X104260270Y-72956253D01*
X103490534Y-72186517D01*
X105286585Y-72186517D02*
X104858954Y-72614148D01*
X103960928Y-71716123D01*
X105585927Y-71887175D02*
X104687901Y-70989150D01*
X104901717Y-70775334D01*
X105072770Y-70689808D01*
X105243822Y-70689808D01*
X105372111Y-70732571D01*
X105585927Y-70860860D01*
X105714216Y-70989150D01*
X105842506Y-71202965D01*
X105885269Y-71331255D01*
X105885269Y-71502307D01*
X105799743Y-71673360D01*
X105585927Y-71887175D01*
X106483953Y-70989150D02*
X105585927Y-70091124D01*
X105799743Y-69877308D01*
X105970795Y-69791782D01*
X106141848Y-69791782D01*
X106270137Y-69834545D01*
X106483953Y-69962835D01*
X106612242Y-70091124D01*
X106740531Y-70304940D01*
X106783295Y-70433229D01*
X106783295Y-70604282D01*
X106697768Y-70775334D01*
X106483953Y-70989150D01*
X107039873Y-69749019D02*
X107724083Y-69064809D01*
X107852373Y-68423362D02*
X108493820Y-67781915D01*
X107724083Y-67781915D02*
X108622109Y-69193098D01*
X108793161Y-68252310D02*
X108151715Y-68893757D01*
X108921451Y-68893757D02*
X108023425Y-67482573D01*
X108750398Y-67525337D02*
X109391845Y-66883890D01*
X108622109Y-66883890D02*
X109520135Y-68295073D01*
X109691187Y-67354284D02*
X109049740Y-67995731D01*
X109819476Y-67995731D02*
X108921451Y-66584548D01*
X109648424Y-66627311D02*
X110289871Y-65985864D01*
X109520135Y-65985864D02*
X110418160Y-67397047D01*
X110589213Y-66456258D02*
X109947766Y-67097705D01*
X110717502Y-67097705D02*
X109819476Y-65686522D01*
X111615528Y-65857575D02*
X111187896Y-66285206D01*
X110289871Y-65387180D01*
%TO.C,A1*%
X85171123Y-91039383D02*
X85507841Y-90702665D01*
X85305810Y-91308757D02*
X84834406Y-90365948D01*
X85777215Y-90837352D01*
X86383306Y-90231261D02*
X85979245Y-90635322D01*
X86181276Y-90433291D02*
X85474169Y-89726185D01*
X85507841Y-89894543D01*
X85507841Y-90029230D01*
X85474169Y-90130246D01*
%TO.C,U4*%
X60792183Y-100501078D02*
X61364603Y-101073498D01*
X61465618Y-101107170D01*
X61532962Y-101107170D01*
X61633977Y-101073498D01*
X61768664Y-100938811D01*
X61802336Y-100837796D01*
X61802336Y-100770452D01*
X61768664Y-100669437D01*
X61196244Y-100097017D01*
X62071710Y-99692956D02*
X62543114Y-100164361D01*
X61633977Y-99591941D02*
X61970695Y-100265376D01*
X62408427Y-99827643D01*
X53287824Y-100261620D02*
X52580717Y-99554513D01*
X53153136Y-99453498D02*
X53624541Y-99924902D01*
X53220480Y-99520841D02*
X53220480Y-99453498D01*
X53254152Y-99352482D01*
X53355167Y-99251467D01*
X53456182Y-99217795D01*
X53557198Y-99251467D01*
X53927587Y-99621857D01*
X50883432Y-97587854D02*
X51018119Y-97453167D01*
X51119134Y-97419495D01*
X51253821Y-97419495D01*
X51422180Y-97520511D01*
X51657882Y-97756213D01*
X51758897Y-97924572D01*
X51758897Y-98059259D01*
X51725225Y-98160274D01*
X51590538Y-98294961D01*
X51489523Y-98328633D01*
X51354836Y-98328633D01*
X51186477Y-98227617D01*
X50950775Y-97991915D01*
X50849760Y-97823556D01*
X50849760Y-97688869D01*
X50883432Y-97587854D01*
X52028271Y-96914419D02*
X52499676Y-97385824D01*
X51725225Y-97217465D02*
X52095615Y-97587854D01*
X52196630Y-97621526D01*
X52297645Y-97587854D01*
X52398661Y-97486839D01*
X52432332Y-97385824D01*
X52432332Y-97318480D01*
X52263974Y-96678717D02*
X52533348Y-96409343D01*
X52129287Y-96341999D02*
X52735378Y-96948091D01*
X52836393Y-96981762D01*
X52937409Y-96948091D01*
X53004752Y-96880747D01*
X49338793Y-95571812D02*
X49237778Y-95605484D01*
X49136763Y-95706499D01*
X49069419Y-95841186D01*
X49069419Y-95975873D01*
X49103091Y-96076888D01*
X49204106Y-96245247D01*
X49305122Y-96346262D01*
X49473480Y-96447277D01*
X49574496Y-96480949D01*
X49709183Y-96480949D01*
X49843870Y-96413606D01*
X49911213Y-96346262D01*
X49978557Y-96211575D01*
X49978557Y-96144232D01*
X49742854Y-95908529D01*
X49608167Y-96043216D01*
X49877541Y-95437125D02*
X50348946Y-95908529D01*
X49944885Y-95504468D02*
X49944885Y-95437125D01*
X49978557Y-95336109D01*
X50079572Y-95235094D01*
X50180587Y-95201422D01*
X50281603Y-95235094D01*
X50651992Y-95605484D01*
X51291755Y-94965720D02*
X50584648Y-94258613D01*
X51258083Y-94932048D02*
X51224412Y-95033064D01*
X51089725Y-95167751D01*
X50988709Y-95201422D01*
X50921366Y-95201422D01*
X50820351Y-95167751D01*
X50618320Y-94965720D01*
X50584648Y-94864705D01*
X50584648Y-94797361D01*
X50618320Y-94696346D01*
X50753007Y-94561659D01*
X50854022Y-94527987D01*
X47363171Y-94067594D02*
X47497858Y-93932907D01*
X47598873Y-93899235D01*
X47733560Y-93899235D01*
X47901919Y-94000250D01*
X48137621Y-94235953D01*
X48238636Y-94404311D01*
X48238636Y-94538998D01*
X48204965Y-94640014D01*
X48070278Y-94774701D01*
X47969262Y-94808372D01*
X47834575Y-94808372D01*
X47666217Y-94707357D01*
X47430514Y-94471655D01*
X47329499Y-94303296D01*
X47329499Y-94168609D01*
X47363171Y-94067594D01*
X48103949Y-93798220D02*
X48373323Y-93528846D01*
X48676369Y-94168609D02*
X48070278Y-93562518D01*
X48036606Y-93461502D01*
X48070278Y-93360487D01*
X48137621Y-93293144D01*
X48508010Y-93394159D02*
X48777384Y-93124785D01*
X49080430Y-93764548D02*
X48474339Y-93158457D01*
X48440667Y-93057441D01*
X48474339Y-92956426D01*
X48541682Y-92889083D01*
X56794756Y-84528244D02*
X56929443Y-84393557D01*
X57030458Y-84359885D01*
X57165145Y-84359885D01*
X57333504Y-84460900D01*
X57569206Y-84696603D01*
X57670221Y-84864961D01*
X57670221Y-84999648D01*
X57636550Y-85100664D01*
X57501863Y-85235351D01*
X57400847Y-85269022D01*
X57266160Y-85269022D01*
X57097802Y-85168007D01*
X56862099Y-84932305D01*
X56761084Y-84763946D01*
X56761084Y-84629259D01*
X56794756Y-84528244D01*
X57535534Y-84258870D02*
X57804908Y-83989496D01*
X58107954Y-84629259D02*
X57501863Y-84023168D01*
X57468191Y-83922152D01*
X57501863Y-83821137D01*
X57569206Y-83753794D01*
X57939595Y-83854809D02*
X58208969Y-83585435D01*
X58512015Y-84225198D02*
X57905924Y-83619107D01*
X57872252Y-83518091D01*
X57905924Y-83417076D01*
X57973267Y-83349733D01*
X58332646Y-86470196D02*
X58231631Y-86503868D01*
X58130616Y-86604883D01*
X58063272Y-86739570D01*
X58063272Y-86874257D01*
X58096944Y-86975272D01*
X58197959Y-87143631D01*
X58298975Y-87244646D01*
X58467333Y-87345661D01*
X58568349Y-87379333D01*
X58703036Y-87379333D01*
X58837723Y-87311990D01*
X58905066Y-87244646D01*
X58972410Y-87109959D01*
X58972410Y-87042616D01*
X58736707Y-86806913D01*
X58602020Y-86941600D01*
X58871394Y-86335509D02*
X59342799Y-86806913D01*
X58938738Y-86402852D02*
X58938738Y-86335509D01*
X58972410Y-86234493D01*
X59073425Y-86133478D01*
X59174440Y-86099806D01*
X59275456Y-86133478D01*
X59645845Y-86503868D01*
X60285608Y-85864104D02*
X59578501Y-85156997D01*
X60251936Y-85830432D02*
X60218265Y-85931448D01*
X60083578Y-86066135D01*
X59982562Y-86099806D01*
X59915219Y-86099806D01*
X59814204Y-86066135D01*
X59612173Y-85864104D01*
X59578501Y-85763089D01*
X59578501Y-85695745D01*
X59612173Y-85594730D01*
X59746860Y-85460043D01*
X59847875Y-85426371D01*
X63291829Y-90149852D02*
X62584722Y-89442745D01*
X63157141Y-89341730D02*
X63628546Y-89813134D01*
X63224485Y-89409073D02*
X63224485Y-89341730D01*
X63258157Y-89240714D01*
X63359172Y-89139699D01*
X63460187Y-89106027D01*
X63561203Y-89139699D01*
X63931592Y-89510089D01*
X60079315Y-88284208D02*
X60214002Y-88149521D01*
X60315017Y-88115849D01*
X60449704Y-88115849D01*
X60618063Y-88216865D01*
X60853765Y-88452567D01*
X60954780Y-88620926D01*
X60954780Y-88755613D01*
X60921108Y-88856628D01*
X60786421Y-88991315D01*
X60685406Y-89024987D01*
X60550719Y-89024987D01*
X60382360Y-88923971D01*
X60146658Y-88688269D01*
X60045643Y-88519910D01*
X60045643Y-88385223D01*
X60079315Y-88284208D01*
X61224154Y-87610773D02*
X61695559Y-88082178D01*
X60921108Y-87913819D02*
X61291498Y-88284208D01*
X61392513Y-88317880D01*
X61493528Y-88284208D01*
X61594544Y-88183193D01*
X61628215Y-88082178D01*
X61628215Y-88014834D01*
X61459857Y-87375071D02*
X61729231Y-87105697D01*
X61325170Y-87038353D02*
X61931261Y-87644445D01*
X62032276Y-87678116D01*
X62133292Y-87644445D01*
X62200635Y-87577101D01*
%TO.C,U1*%
X77985858Y-64119870D02*
X77258885Y-64846843D01*
X77216122Y-64975132D01*
X77216122Y-65060658D01*
X77258885Y-65188948D01*
X77429938Y-65360000D01*
X77558227Y-65402763D01*
X77643753Y-65402763D01*
X77772043Y-65360000D01*
X78499016Y-64633027D01*
X78499016Y-66429078D02*
X77985858Y-65915921D01*
X78242437Y-66172500D02*
X79140463Y-65274474D01*
X78926647Y-65317237D01*
X78755595Y-65317237D01*
X78627305Y-65274474D01*
X86559864Y-66707038D02*
X85661838Y-65809013D01*
X86602627Y-66151118D01*
X86260522Y-65210329D01*
X87158548Y-66108355D01*
X87885521Y-65295855D02*
X87842758Y-65424145D01*
X87671705Y-65595197D01*
X87543416Y-65637960D01*
X87415127Y-65595197D01*
X87073022Y-65253092D01*
X87030258Y-65124803D01*
X87073022Y-64996513D01*
X87244074Y-64825461D01*
X87372363Y-64782698D01*
X87500653Y-64825461D01*
X87586179Y-64910987D01*
X87244074Y-65424145D01*
X88740783Y-64526119D02*
X88270389Y-64055725D01*
X88142100Y-64012961D01*
X88013810Y-64055725D01*
X87842758Y-64226777D01*
X87799995Y-64355066D01*
X88698020Y-64483356D02*
X88655257Y-64611645D01*
X88441442Y-64825461D01*
X88313152Y-64868224D01*
X88184863Y-64825461D01*
X88099337Y-64739935D01*
X88056573Y-64611645D01*
X88099337Y-64483356D01*
X88313152Y-64269540D01*
X88355915Y-64141251D01*
X88569731Y-63499804D02*
X89168415Y-64098488D01*
X88655257Y-63585330D02*
X88655257Y-63499804D01*
X88698020Y-63371515D01*
X88826310Y-63243225D01*
X88954599Y-63200462D01*
X89082888Y-63243225D01*
X89553283Y-63713620D01*
X88997362Y-62473489D02*
X90109203Y-63157699D01*
X89638809Y-62345200D01*
X90451308Y-62815594D01*
X89767098Y-61703753D01*
X91306571Y-61874805D02*
X91263808Y-62003095D01*
X91092755Y-62174147D01*
X90964466Y-62216910D01*
X90836177Y-62174147D01*
X90494072Y-61832042D01*
X90451308Y-61703753D01*
X90494072Y-61575463D01*
X90665124Y-61404411D01*
X90793413Y-61361648D01*
X90921703Y-61404411D01*
X91007229Y-61489937D01*
X90665124Y-62003095D01*
X91905255Y-61361648D02*
X91776965Y-61404411D01*
X91648676Y-61361648D01*
X90878940Y-60591911D01*
X92375649Y-60891253D02*
X92247360Y-60934016D01*
X92119070Y-60891253D01*
X91349334Y-60121517D01*
X93145385Y-60121517D02*
X92717754Y-60549148D01*
X91819728Y-59651123D01*
X93444727Y-59822175D02*
X92546701Y-58924150D01*
X92760517Y-58710334D01*
X92931570Y-58624808D01*
X93102622Y-58624808D01*
X93230911Y-58667571D01*
X93444727Y-58795860D01*
X93573016Y-58924150D01*
X93701306Y-59137965D01*
X93744069Y-59266255D01*
X93744069Y-59437307D01*
X93658543Y-59608360D01*
X93444727Y-59822175D01*
X94342753Y-58924150D02*
X93444727Y-58026124D01*
X93658543Y-57812308D01*
X93829595Y-57726782D01*
X94000648Y-57726782D01*
X94128937Y-57769545D01*
X94342753Y-57897835D01*
X94471042Y-58026124D01*
X94599331Y-58239940D01*
X94642095Y-58368229D01*
X94642095Y-58539282D01*
X94556568Y-58710334D01*
X94342753Y-58924150D01*
X94898673Y-57684019D02*
X95582883Y-56999809D01*
X95711173Y-56358362D02*
X96352620Y-55716915D01*
X95582883Y-55716915D02*
X96480909Y-57128098D01*
X96651961Y-56187310D02*
X96010515Y-56828757D01*
X96780251Y-56828757D02*
X95882225Y-55417573D01*
X96609198Y-55460337D02*
X97250645Y-54818890D01*
X96480909Y-54818890D02*
X97378935Y-56230073D01*
X97549987Y-55289284D02*
X96908540Y-55930731D01*
X97678276Y-55930731D02*
X96780251Y-54519548D01*
X97507224Y-54562311D02*
X98148671Y-53920864D01*
X97378935Y-53920864D02*
X98276960Y-55332047D01*
X98448013Y-54391258D02*
X97806566Y-55032705D01*
X98576302Y-55032705D02*
X97678276Y-53621522D01*
X99474328Y-53792575D02*
X99046696Y-54220206D01*
X98148671Y-53322180D01*
%TO.C,U3*%
X88425258Y-104861470D02*
X87698285Y-105588443D01*
X87655522Y-105716732D01*
X87655522Y-105802258D01*
X87698285Y-105930548D01*
X87869338Y-106101600D01*
X87997627Y-106144363D01*
X88083153Y-106144363D01*
X88211443Y-106101600D01*
X88938416Y-105374627D01*
X89280521Y-105716732D02*
X89836442Y-106272653D01*
X89194995Y-106315416D01*
X89323284Y-106443705D01*
X89366047Y-106571995D01*
X89366047Y-106657521D01*
X89323284Y-106785810D01*
X89109468Y-106999626D01*
X88981179Y-107042389D01*
X88895653Y-107042389D01*
X88767363Y-106999626D01*
X88510785Y-106743047D01*
X88468022Y-106614758D01*
X88468022Y-106529231D01*
X96999264Y-107448638D02*
X96101238Y-106550613D01*
X97042027Y-106892718D01*
X96699922Y-105951929D01*
X97597948Y-106849955D01*
X98324921Y-106037455D02*
X98282158Y-106165745D01*
X98111105Y-106336797D01*
X97982816Y-106379560D01*
X97854527Y-106336797D01*
X97512422Y-105994692D01*
X97469658Y-105866403D01*
X97512422Y-105738113D01*
X97683474Y-105567061D01*
X97811763Y-105524298D01*
X97940053Y-105567061D01*
X98025579Y-105652587D01*
X97683474Y-106165745D01*
X99180183Y-105267719D02*
X98709789Y-104797325D01*
X98581500Y-104754561D01*
X98453210Y-104797325D01*
X98282158Y-104968377D01*
X98239395Y-105096666D01*
X99137420Y-105224956D02*
X99094657Y-105353245D01*
X98880842Y-105567061D01*
X98752552Y-105609824D01*
X98624263Y-105567061D01*
X98538737Y-105481535D01*
X98495973Y-105353245D01*
X98538737Y-105224956D01*
X98752552Y-105011140D01*
X98795315Y-104882851D01*
X99009131Y-104241404D02*
X99607815Y-104840088D01*
X99094657Y-104326930D02*
X99094657Y-104241404D01*
X99137420Y-104113115D01*
X99265710Y-103984825D01*
X99393999Y-103942062D01*
X99522288Y-103984825D01*
X99992683Y-104455220D01*
X99436762Y-103215089D02*
X100548603Y-103899299D01*
X100078209Y-103086800D01*
X100890708Y-103557194D01*
X100206498Y-102445353D01*
X101745971Y-102616405D02*
X101703208Y-102744695D01*
X101532155Y-102915747D01*
X101403866Y-102958510D01*
X101275577Y-102915747D01*
X100933472Y-102573642D01*
X100890708Y-102445353D01*
X100933472Y-102317063D01*
X101104524Y-102146011D01*
X101232813Y-102103248D01*
X101361103Y-102146011D01*
X101446629Y-102231537D01*
X101104524Y-102744695D01*
X102344655Y-102103248D02*
X102216365Y-102146011D01*
X102088076Y-102103248D01*
X101318340Y-101333511D01*
X102815049Y-101632853D02*
X102686760Y-101675616D01*
X102558470Y-101632853D01*
X101788734Y-100863117D01*
X103584785Y-100863117D02*
X103157154Y-101290748D01*
X102259128Y-100392723D01*
X103884127Y-100563775D02*
X102986101Y-99665750D01*
X103199917Y-99451934D01*
X103370970Y-99366408D01*
X103542022Y-99366408D01*
X103670311Y-99409171D01*
X103884127Y-99537460D01*
X104012416Y-99665750D01*
X104140706Y-99879565D01*
X104183469Y-100007855D01*
X104183469Y-100178907D01*
X104097943Y-100349960D01*
X103884127Y-100563775D01*
X104782153Y-99665750D02*
X103884127Y-98767724D01*
X104097943Y-98553908D01*
X104268995Y-98468382D01*
X104440048Y-98468382D01*
X104568337Y-98511145D01*
X104782153Y-98639435D01*
X104910442Y-98767724D01*
X105038731Y-98981540D01*
X105081495Y-99109829D01*
X105081495Y-99280882D01*
X104995968Y-99451934D01*
X104782153Y-99665750D01*
X105338073Y-98425619D02*
X106022283Y-97741409D01*
X106150573Y-97099962D02*
X106792020Y-96458515D01*
X106022283Y-96458515D02*
X106920309Y-97869698D01*
X107091361Y-96928910D02*
X106449915Y-97570357D01*
X107219651Y-97570357D02*
X106321625Y-96159173D01*
X107048598Y-96201937D02*
X107690045Y-95560490D01*
X106920309Y-95560490D02*
X107818335Y-96971673D01*
X107989387Y-96030884D02*
X107347940Y-96672331D01*
X108117676Y-96672331D02*
X107219651Y-95261148D01*
X107946624Y-95303911D02*
X108588071Y-94662464D01*
X107818335Y-94662464D02*
X108716360Y-96073647D01*
X108887413Y-95132858D02*
X108245966Y-95774305D01*
X109015702Y-95774305D02*
X108117676Y-94363122D01*
X109913728Y-94534175D02*
X109486096Y-94961806D01*
X108588071Y-94063780D01*
%TO.C,J4*%
X68842079Y-109911779D02*
X69347155Y-110416855D01*
X69414499Y-110551542D01*
X69414499Y-110686229D01*
X69347155Y-110820916D01*
X69279812Y-110888259D01*
X69717545Y-109507718D02*
X70188949Y-109979122D01*
X69279812Y-109406702D02*
X69616529Y-110080137D01*
X70054262Y-109642405D01*
%TD*%
M02*
